<svg xmlns="http://www.w3.org/2000/svg" xmlns:xlink="http://www.w3.org/1999/xlink" width="146" zoomAndPan="magnify" viewBox="0 0 109.5 109.499997" height="146" preserveAspectRatio="xMidYMid meet" version="1.0"><defs><g/><clipPath id="abc179431e"><path d="M 0 0 L 109.003906 0 L 109.003906 109.003906 L 0 109.003906 Z M 0 0 " clip-rule="nonzero"/></clipPath><clipPath id="d4e950ea84"><path d="M 54.75 0 C 24.425781 0 0 24.425781 0 54.75 C 0 85.074219 24.425781 109.5 54.75 109.5 C 84.792969 109.5 109.5 85.074219 109.5 54.75 C 109.5 24.425781 84.792969 0 54.75 0 M 54.75 101.078125 C 29.199219 101.078125 8.421875 80.300781 8.421875 54.75 C 8.421875 29.199219 29.199219 8.421875 54.75 8.421875 C 80.300781 8.421875 101.078125 29.199219 101.078125 54.75 C 101.078125 80.300781 80.300781 101.078125 54.75 101.078125 " clip-rule="nonzero"/></clipPath><clipPath id="a1af80dbd4"><path d="M 8.125 8.125 L 101.371094 8.125 L 101.371094 101.371094 L 8.125 101.371094 Z M 8.125 8.125 " clip-rule="nonzero"/></clipPath><clipPath id="22a7356ae4"><path d="M 54.75 8.421875 C 29.199219 8.421875 8.421875 29.199219 8.421875 54.75 C 8.421875 80.300781 29.199219 101.078125 54.75 101.078125 C 80.300781 101.078125 101.078125 80.300781 101.078125 54.75 C 101.078125 29.199219 80.300781 8.421875 54.75 8.421875 " clip-rule="nonzero"/></clipPath><clipPath id="9a01f4f89f"><path d="M 29.667969 46 L 35 46 L 35 51 L 29.667969 51 Z M 29.667969 46 " clip-rule="nonzero"/></clipPath><clipPath id="6803701b93"><path d="M 54 31.269531 L 57 31.269531 L 57 37 L 54 37 Z M 54 31.269531 " clip-rule="nonzero"/></clipPath><clipPath id="22083457a9"><path d="M 74 46 L 79.917969 46 L 79.917969 51 L 74 51 Z M 74 46 " clip-rule="nonzero"/></clipPath><clipPath id="2bdf1dce47"><path d="M 49 89.71875 L 63 89.71875 L 63 92.769531 L 49 92.769531 Z M 49 89.71875 " clip-rule="nonzero"/></clipPath><clipPath id="cd8e5761ec"><path d="M 63.449219 95.945312 L 48.242188 95.945312 L 48.273438 89.789062 L 63.480469 89.789062 Z M 63.449219 95.945312 " clip-rule="nonzero"/></clipPath><clipPath id="cf9f44994e"><path d="M 51.289062 56 L 59.664062 56 L 59.664062 58.632812 L 51.289062 58.632812 Z M 51.289062 56 " clip-rule="nonzero"/></clipPath><clipPath id="aab37d6877"><path d="M 55.539062 58.585938 C 53.210938 58.585938 51.320312 56.707031 51.320312 54.390625 L 51.320312 53.890625 L 59.75 53.890625 L 59.75 54.390625 C 59.757812 56.707031 57.867188 58.585938 55.539062 58.585938 Z M 55.539062 58.585938 " clip-rule="nonzero"/></clipPath><clipPath id="f17fac8632"><path d="M 56.273438 58.585938 L 54.789062 58.585938 C 52.867188 58.585938 51.3125 57.039062 51.3125 55.128906 C 51.3125 54.445312 51.871094 53.890625 52.558594 53.890625 L 58.507812 53.890625 C 59.191406 53.890625 59.75 54.445312 59.75 55.128906 C 59.742188 57.039062 58.1875 58.585938 56.273438 58.585938 Z M 56.273438 58.585938 " clip-rule="nonzero"/></clipPath><clipPath id="90abe977b4"><path d="M 57.367188 58.585938 L 53.402344 58.585938 C 52.164062 58.585938 51.167969 57.59375 51.167969 56.367188 L 51.167969 53.898438 L 59.597656 53.898438 L 59.597656 56.367188 C 59.597656 57.59375 58.59375 58.585938 57.367188 58.585938 Z M 57.367188 58.585938 " clip-rule="nonzero"/></clipPath></defs><g clip-path="url(#abc179431e)"><g clip-path="url(#d4e950ea84)"><path fill="#fdd76e" d="M 0 0 L 109.5 0 L 109.5 109.5 L 0 109.5 Z M 0 0 " fill-opacity="1" fill-rule="nonzero"/></g></g><g clip-path="url(#a1af80dbd4)"><g clip-path="url(#22a7356ae4)"><path fill="#ffffff" d="M 0 0 L 109.5 0 L 109.5 109.5 L 0 109.5 Z M 0 0 " fill-opacity="1" fill-rule="nonzero"/></g></g><path fill="#fac042" d="M 48.6875 78.957031 C 48.082031 77.316406 47.191406 75.628906 45.386719 73.851562 C 39.789062 68.332031 36.75 65.191406 37.8125 57.707031 C 39.527344 45.519531 51.050781 38.515625 64.296875 44.058594 C 74.136719 48.183594 77.199219 64.011719 67.046875 71.71875 C 64.257812 73.835938 63.777344 74.042969 62.644531 77.046875 C 62.34375 78.1875 62.667969 78.457031 62.414062 79.039062 C 60.984375 82.257812 50.699219 82.566406 48.6875 78.957031 Z M 48.6875 78.957031 " fill-opacity="1" fill-rule="nonzero"/><path fill="#fac042" d="M 66.234375 50.710938 C 65.804688 51.140625 65.378906 51.5625 64.949219 51.988281 " fill-opacity="1" fill-rule="nonzero"/><path fill="#f6b23e" d="M 48.710938 79.0625 C 48.539062 78.671875 48.480469 77.949219 48.457031 77.949219 C 48.441406 77.949219 48.464844 78.742188 48.953125 79.417969 C 49.039062 79.535156 49.214844 79.78125 49.535156 79.988281 C 49.820312 80.179688 49.925781 80.140625 50.570312 80.410156 C 51.027344 80.597656 51.082031 80.664062 51.191406 80.625 C 51.550781 80.503906 51.535156 79.585938 51.527344 79.265625 C 51.457031 75.859375 51.417969 74.136719 51.351562 73.660156 C 50.484375 67.894531 50.425781 65.050781 55.476562 59.996094 C 58.769531 56.667969 59.421875 56.722656 64.496094 52.355469 C 67.34375 49.902344 68.492188 48.707031 69.726562 49.09375 C 71.496094 49.59375 72.902344 54.273438 73.171875 55.691406 C 73.976562 59.980469 73.085938 65.175781 68.785156 70.25 C 66.878906 72.503906 62.941406 75.390625 62.660156 77.132812 C 62.359375 78.332031 62.714844 78.464844 62.429688 79.125 C 60.90625 82.582031 49.8125 81.542969 48.710938 79.0625 Z M 48.710938 79.0625 " fill-opacity="1" fill-rule="nonzero"/><g clip-path="url(#9a01f4f89f)"><path fill="#f6b23e" d="M 33.335938 50.195312 L 30.363281 48.492188 C 29.84375 48.199219 29.667969 47.539062 29.972656 47.03125 C 30.265625 46.515625 30.929688 46.34375 31.4375 46.644531 L 34.414062 48.347656 C 34.933594 48.640625 35.109375 49.300781 34.804688 49.808594 C 34.507812 50.316406 33.855469 50.496094 33.335938 50.195312 Z M 33.335938 50.195312 " fill-opacity="1" fill-rule="nonzero"/></g><path fill="#f6b23e" d="M 41.167969 40.457031 L 39.308594 37.589844 C 38.992188 37.089844 39.136719 36.429688 39.628906 36.105469 C 40.132812 35.789062 40.792969 35.929688 41.121094 36.421875 L 42.980469 39.292969 C 43.296875 39.792969 43.152344 40.449219 42.660156 40.777344 C 42.15625 41.101562 41.488281 40.957031 41.167969 40.457031 Z M 41.167969 40.457031 " fill-opacity="1" fill-rule="nonzero"/><g clip-path="url(#6803701b93)"><path fill="#f6b23e" d="M 54.214844 35.789062 L 54.214844 32.371094 C 54.214844 31.777344 54.695312 31.300781 55.292969 31.300781 C 55.890625 31.300781 56.367188 31.777344 56.367188 32.371094 L 56.367188 35.789062 C 56.367188 36.382812 55.890625 36.859375 55.292969 36.859375 C 54.695312 36.859375 54.214844 36.382812 54.214844 35.789062 Z M 54.214844 35.789062 " fill-opacity="1" fill-rule="nonzero"/></g><path fill="#f6b23e" d="M 71.058594 37.390625 L 68.839844 40 C 68.457031 40.449219 67.78125 40.507812 67.328125 40.125 C 66.871094 39.746094 66.816406 39.070312 67.199219 38.617188 L 69.414062 36.011719 C 69.796875 35.558594 70.476562 35.503906 70.929688 35.882812 C 71.386719 36.265625 71.441406 36.9375 71.058594 37.390625 Z M 71.058594 37.390625 " fill-opacity="1" fill-rule="nonzero"/><g clip-path="url(#22083457a9)"><path fill="#f6b23e" d="M 79.226562 48.4375 L 76.25 50.140625 C 75.730469 50.433594 75.078125 50.261719 74.78125 49.753906 C 74.488281 49.238281 74.664062 48.585938 75.171875 48.292969 L 78.148438 46.589844 C 78.667969 46.296875 79.320312 46.46875 79.617188 46.976562 C 79.917969 47.484375 79.742188 48.144531 79.226562 48.4375 Z M 79.226562 48.4375 " fill-opacity="1" fill-rule="nonzero"/></g><path fill="#a4a3ad" d="M 63.324219 82.445312 L 48.371094 82.445312 C 47.347656 82.445312 46.527344 81.621094 46.527344 80.617188 C 46.527344 79.601562 47.355469 78.785156 48.371094 78.785156 L 63.324219 78.785156 C 64.34375 78.785156 65.164062 79.609375 65.164062 80.617188 C 65.164062 81.628906 64.34375 82.445312 63.324219 82.445312 Z M 63.324219 82.445312 " fill-opacity="1" fill-rule="nonzero"/><path fill="#a4a3ad" d="M 63.324219 86.117188 L 48.371094 86.117188 C 47.347656 86.117188 46.527344 85.292969 46.527344 84.285156 C 46.527344 83.273438 47.355469 82.457031 48.371094 82.457031 L 63.324219 82.457031 C 64.34375 82.457031 65.164062 83.28125 65.164062 84.285156 C 65.164062 85.300781 64.34375 86.117188 63.324219 86.117188 Z M 63.324219 86.117188 " fill-opacity="1" fill-rule="nonzero"/><path fill="#a4a3ad" d="M 63.324219 89.789062 L 48.371094 89.789062 C 47.347656 89.789062 46.527344 88.964844 46.527344 87.957031 C 46.527344 86.945312 47.355469 86.125 48.371094 86.125 L 63.324219 86.125 C 64.34375 86.125 65.164062 86.953125 65.164062 87.957031 C 65.164062 88.964844 64.34375 89.789062 63.324219 89.789062 Z M 63.324219 89.789062 " fill-opacity="1" fill-rule="nonzero"/><g clip-path="url(#2bdf1dce47)"><g clip-path="url(#cd8e5761ec)"><path fill="#808089" d="M 62.367188 88.511719 C 62.367188 88.792969 62.324219 89.066406 62.242188 89.339844 C 62.15625 89.609375 62.035156 89.875 61.871094 90.132812 C 61.707031 90.386719 61.503906 90.632812 61.269531 90.863281 C 61.03125 91.09375 60.761719 91.304688 60.457031 91.503906 C 60.15625 91.699219 59.824219 91.875 59.46875 92.027344 C 59.113281 92.183594 58.738281 92.3125 58.34375 92.417969 C 57.949219 92.523438 57.542969 92.605469 57.121094 92.660156 C 56.703125 92.714844 56.277344 92.738281 55.851562 92.738281 C 55.421875 92.738281 55 92.714844 54.578125 92.660156 C 54.160156 92.605469 53.753906 92.523438 53.355469 92.417969 C 52.960938 92.3125 52.585938 92.183594 52.230469 92.027344 C 51.875 91.875 51.546875 91.699219 51.242188 91.503906 C 50.941406 91.304688 50.671875 91.09375 50.433594 90.863281 C 50.195312 90.632812 49.996094 90.386719 49.832031 90.132812 C 49.667969 89.875 49.542969 89.609375 49.460938 89.339844 C 49.375 89.066406 49.335938 88.792969 49.335938 88.511719 C 49.335938 88.234375 49.375 87.960938 49.460938 87.6875 C 49.542969 87.417969 49.667969 87.152344 49.832031 86.894531 C 49.996094 86.640625 50.195312 86.394531 50.433594 86.164062 C 50.671875 85.933594 50.941406 85.722656 51.242188 85.523438 C 51.546875 85.328125 51.875 85.152344 52.230469 85 C 52.585938 84.84375 52.960938 84.714844 53.355469 84.609375 C 53.753906 84.503906 54.160156 84.421875 54.578125 84.367188 C 55 84.3125 55.421875 84.285156 55.851562 84.285156 C 56.277344 84.285156 56.703125 84.3125 57.121094 84.367188 C 57.542969 84.421875 57.949219 84.503906 58.34375 84.609375 C 58.738281 84.714844 59.113281 84.84375 59.46875 85 C 59.824219 85.152344 60.15625 85.328125 60.457031 85.523438 C 60.761719 85.722656 61.03125 85.933594 61.269531 86.164062 C 61.503906 86.394531 61.707031 86.640625 61.871094 86.894531 C 62.035156 87.152344 62.15625 87.417969 62.242188 87.6875 C 62.324219 87.960938 62.367188 88.234375 62.367188 88.511719 Z M 62.367188 88.511719 " fill-opacity="1" fill-rule="nonzero"/></g></g><path fill="#808089" d="M 63.371094 86.117188 C 63.371094 86.199219 60.003906 86.253906 55.875 86.253906 C 51.105469 86.253906 48.371094 86.199219 48.371094 86.117188 C 48.371094 86.039062 51.105469 85.992188 55.867188 85.992188 C 59.996094 86 63.371094 86.039062 63.371094 86.117188 Z M 63.371094 86.117188 " fill-opacity="1" fill-rule="nonzero"/><path fill="#808089" d="M 63.371094 82.445312 C 63.371094 82.527344 60.003906 82.582031 55.875 82.582031 C 51.105469 82.582031 48.371094 82.527344 48.371094 82.445312 C 48.371094 82.367188 51.105469 82.320312 55.867188 82.320312 C 59.996094 82.320312 63.371094 82.367188 63.371094 82.445312 Z M 63.371094 82.445312 " fill-opacity="1" fill-rule="nonzero"/><path fill="#f4aa32" d="M 50.601562 57.769531 C 50.601562 57.972656 50.550781 58.167969 50.441406 58.355469 C 50.335938 58.542969 50.183594 58.707031 49.984375 58.851562 C 49.789062 58.996094 49.5625 59.105469 49.304688 59.183594 C 49.046875 59.261719 48.777344 59.300781 48.496094 59.300781 C 48.21875 59.300781 47.949219 59.261719 47.691406 59.183594 C 47.433594 59.105469 47.207031 58.996094 47.007812 58.851562 C 46.8125 58.707031 46.660156 58.542969 46.550781 58.355469 C 46.445312 58.167969 46.390625 57.972656 46.390625 57.769531 C 46.390625 57.566406 46.445312 57.371094 46.550781 57.183594 C 46.660156 56.996094 46.8125 56.832031 47.007812 56.6875 C 47.207031 56.542969 47.433594 56.433594 47.691406 56.355469 C 47.949219 56.277344 48.21875 56.238281 48.496094 56.238281 C 48.777344 56.238281 49.046875 56.277344 49.304688 56.355469 C 49.5625 56.433594 49.789062 56.542969 49.984375 56.6875 C 50.183594 56.832031 50.335938 56.996094 50.441406 57.183594 C 50.550781 57.371094 50.601562 57.566406 50.601562 57.769531 Z M 50.601562 57.769531 " fill-opacity="1" fill-rule="nonzero"/><path fill="#f39b31" d="M 64.855469 57.238281 C 64.855469 57.441406 64.800781 57.636719 64.695312 57.824219 C 64.585938 58.011719 64.433594 58.175781 64.238281 58.320312 C 64.039062 58.464844 63.8125 58.574219 63.554688 58.652344 C 63.296875 58.730469 63.027344 58.769531 62.75 58.769531 C 62.46875 58.769531 62.199219 58.730469 61.941406 58.652344 C 61.683594 58.574219 61.457031 58.464844 61.261719 58.320312 C 61.0625 58.175781 60.910156 58.011719 60.804688 57.824219 C 60.695312 57.636719 60.644531 57.441406 60.644531 57.238281 C 60.644531 57.035156 60.695312 56.839844 60.804688 56.652344 C 60.910156 56.464844 61.0625 56.300781 61.261719 56.15625 C 61.457031 56.011719 61.683594 55.902344 61.941406 55.824219 C 62.199219 55.746094 62.46875 55.707031 62.75 55.707031 C 63.027344 55.707031 63.296875 55.746094 63.554688 55.824219 C 63.8125 55.902344 64.039062 56.011719 64.238281 56.15625 C 64.433594 56.300781 64.585938 56.464844 64.695312 56.652344 C 64.800781 56.839844 64.855469 57.035156 64.855469 57.238281 Z M 64.855469 57.238281 " fill-opacity="1" fill-rule="nonzero"/><path fill="#7f3a33" d="M 55.539062 58.585938 C 53.210938 58.585938 51.320312 56.707031 51.320312 54.390625 L 51.320312 53.890625 L 59.75 53.890625 L 59.75 54.390625 C 59.757812 56.707031 57.867188 58.585938 55.539062 58.585938 Z M 55.539062 58.585938 " fill-opacity="1" fill-rule="nonzero"/><path fill="#7f3a33" d="M 50.210938 53.929688 C 50.210938 54.148438 50.171875 54.359375 50.085938 54.558594 C 50.003906 54.761719 49.882812 54.9375 49.730469 55.09375 C 49.574219 55.246094 49.394531 55.363281 49.191406 55.449219 C 48.992188 55.53125 48.78125 55.574219 48.5625 55.574219 C 48.34375 55.574219 48.132812 55.53125 47.929688 55.449219 C 47.726562 55.363281 47.546875 55.246094 47.394531 55.09375 C 47.238281 54.9375 47.121094 54.761719 47.035156 54.558594 C 46.953125 54.359375 46.910156 54.148438 46.910156 53.929688 C 46.910156 53.714844 46.953125 53.503906 47.035156 53.304688 C 47.121094 53.101562 47.238281 52.925781 47.394531 52.769531 C 47.546875 52.617188 47.726562 52.5 47.929688 52.414062 C 48.132812 52.332031 48.34375 52.289062 48.5625 52.289062 C 48.78125 52.289062 48.992188 52.332031 49.191406 52.414062 C 49.394531 52.5 49.574219 52.617188 49.730469 52.769531 C 49.882812 52.925781 50.003906 53.101562 50.085938 53.304688 C 50.171875 53.503906 50.210938 53.714844 50.210938 53.929688 Z M 50.210938 53.929688 " fill-opacity="1" fill-rule="nonzero"/><path fill="#7f3a33" d="M 64.046875 53.503906 C 64.046875 53.722656 64.007812 53.929688 63.921875 54.132812 C 63.839844 54.332031 63.71875 54.511719 63.566406 54.664062 C 63.410156 54.816406 63.230469 54.9375 63.03125 55.019531 C 62.828125 55.101562 62.617188 55.144531 62.398438 55.144531 C 62.179688 55.144531 61.96875 55.101562 61.765625 55.019531 C 61.5625 54.9375 61.386719 54.816406 61.230469 54.664062 C 61.074219 54.511719 60.957031 54.332031 60.871094 54.132812 C 60.789062 53.929688 60.746094 53.722656 60.746094 53.503906 C 60.746094 53.285156 60.789062 53.078125 60.871094 52.875 C 60.957031 52.675781 61.074219 52.496094 61.230469 52.34375 C 61.386719 52.1875 61.5625 52.070312 61.765625 51.988281 C 61.96875 51.902344 62.179688 51.863281 62.398438 51.863281 C 62.617188 51.863281 62.828125 51.902344 63.03125 51.988281 C 63.230469 52.070312 63.410156 52.1875 63.566406 52.34375 C 63.71875 52.496094 63.839844 52.675781 63.921875 52.875 C 64.007812 53.078125 64.046875 53.285156 64.046875 53.503906 Z M 64.046875 53.503906 " fill-opacity="1" fill-rule="nonzero"/><g clip-path="url(#cf9f44994e)"><g clip-path="url(#aab37d6877)"><g clip-path="url(#f17fac8632)"><g clip-path="url(#90abe977b4)"><path fill="#f08474" d="M 59.597656 59.933594 C 59.597656 60.445312 59.5 60.9375 59.304688 61.410156 C 59.105469 61.882812 58.828125 62.296875 58.464844 62.660156 C 58.101562 63.019531 57.679688 63.300781 57.207031 63.496094 C 56.730469 63.691406 56.238281 63.789062 55.722656 63.789062 C 55.207031 63.789062 54.714844 63.691406 54.238281 63.496094 C 53.765625 63.300781 53.34375 63.019531 52.980469 62.660156 C 52.617188 62.296875 52.339844 61.882812 52.140625 61.410156 C 51.945312 60.9375 51.847656 60.445312 51.847656 59.933594 C 51.847656 59.421875 51.945312 58.933594 52.140625 58.460938 C 52.339844 57.988281 52.617188 57.570312 52.980469 57.210938 C 53.34375 56.847656 53.765625 56.570312 54.238281 56.375 C 54.714844 56.179688 55.207031 56.082031 55.722656 56.082031 C 56.238281 56.082031 56.730469 56.179688 57.207031 56.375 C 57.679688 56.570312 58.101562 56.847656 58.464844 57.210938 C 58.828125 57.570312 59.105469 57.988281 59.304688 58.460938 C 59.5 58.933594 59.597656 59.421875 59.597656 59.933594 Z M 59.597656 59.933594 " fill-opacity="1" fill-rule="nonzero"/></g></g></g></g><g fill="#6d6d72" fill-opacity="1"><g transform="translate(27.823832, 35.298101)"><g><path d="M 1.050781 -0.605469 C 1.457031 -1 1.652344 -1.5625 1.425781 -1.949219 C 1.1875 -2.371094 0.511719 -2.765625 -2.675781 -4.898438 C -2.878906 -5.03125 -3.054688 -5.199219 -3.246094 -5.285156 C -3.542969 -5.414062 -3.820312 -5.355469 -4.023438 -5.195312 C -4.367188 -4.929688 -4.785156 -4.3125 -4.75 -3.917969 C -4.726562 -3.648438 -4.320312 -3.378906 -3.773438 -3 C -3.214844 -2.613281 -2.605469 -2.261719 -2.054688 -1.878906 C -0.683594 -0.871094 -0.0742188 -0.453125 0.234375 -0.300781 C 0.507812 -0.167969 0.746094 -0.304688 1.050781 -0.605469 Z M 1.050781 -0.605469 "/></g></g></g><g fill="#6d6d72" fill-opacity="1"><g transform="translate(29.178822, 33.044184)"><g><path d="M 0.679688 -0.648438 C 1.09375 -0.925781 1.328125 -1.40625 1.15625 -1.808594 C 1.058594 -2.03125 0.855469 -2.285156 0.292969 -2.835938 C -0.40625 -3.523438 -0.585938 -3.921875 -0.296875 -4.214844 C -0.160156 -4.351562 0.101562 -4.304688 0.453125 -4.03125 C 0.800781 -3.757812 1.066406 -3.53125 1.347656 -3.257812 C 1.695312 -2.917969 1.792969 -2.753906 2.121094 -2.746094 C 2.53125 -2.714844 2.933594 -3.15625 2.941406 -3.511719 C 2.949219 -3.839844 2.746094 -4.035156 2.414062 -4.363281 C 2.265625 -4.507812 2.117188 -4.652344 1.96875 -4.785156 C 1.277344 -5.464844 1.101562 -5.855469 1.394531 -6.152344 C 1.527344 -6.289062 1.792969 -6.238281 2.140625 -5.964844 C 2.488281 -5.695312 2.753906 -5.46875 3.035156 -5.195312 C 3.382812 -4.851562 3.480469 -4.6875 3.808594 -4.679688 C 4.21875 -4.648438 4.621094 -5.09375 4.628906 -5.445312 C 4.636719 -5.773438 4.433594 -5.972656 4.101562 -6.296875 C 3.328125 -7.058594 2.585938 -7.691406 1.984375 -7.929688 C 1.261719 -8.222656 0.683594 -7.824219 0.300781 -7.433594 C -0.261719 -6.859375 -0.3125 -6.429688 -0.347656 -6.082031 C -0.777344 -6.035156 -1.125 -5.761719 -1.386719 -5.496094 C -1.683594 -5.195312 -1.734375 -5.070312 -1.789062 -4.707031 C -2.140625 -4.929688 -3.046875 -4.101562 -3.046875 -3.613281 C -3.050781 -3.21875 -2.675781 -2.984375 -2.125 -2.453125 C -0.894531 -1.28125 -0.394531 -0.734375 -0.117188 -0.53125 C 0.125 -0.351562 0.367188 -0.433594 0.679688 -0.648438 Z M 0.679688 -0.648438 "/></g></g></g><g fill="#6d6d72" fill-opacity="1"><g transform="translate(34.409925, 27.836376)"><g><path d="M 3.066406 -1.75 C 3.644531 -1.964844 3.949219 -2.355469 3.949219 -2.578125 C 3.957031 -2.957031 3.9375 -3.578125 2.113281 -5.296875 C 0.0195312 -7.261719 -1.726562 -5.054688 -1.6875 -4.074219 C -1.644531 -3.160156 -0.933594 -3.3125 -0.65625 -3.496094 C -0.175781 -3.792969 -0.714844 -4.328125 -0.0429688 -4.449219 C 0.222656 -4.5 0.472656 -4.402344 0.722656 -4.210938 C 0.75 -4.1875 0.742188 -4.152344 0.714844 -4.136719 C 0.4375 -3.953125 0.265625 -3.867188 -0.265625 -3.421875 C -0.621094 -3.117188 -1.382812 -1.898438 -0.453125 -1.230469 C 0.445312 -0.597656 1.644531 -0.714844 2.449219 -1.972656 L 2.503906 -1.910156 C 2.667969 -1.699219 2.917969 -1.703125 3.066406 -1.75 Z M 0.691406 -2.777344 C 1.117188 -3.152344 1.355469 -3.214844 1.523438 -3.238281 C 1.539062 -3.242188 1.574219 -3.203125 1.601562 -3.164062 L 1.738281 -2.964844 C 1.761719 -2.929688 1.777344 -2.867188 1.75 -2.820312 C 1.648438 -2.671875 1.496094 -2.496094 1.089844 -2.207031 C 0.625 -1.878906 0.15625 -2.3125 0.691406 -2.777344 Z M 0.691406 -2.777344 "/></g></g></g><g fill="#6d6d72" fill-opacity="1"><g transform="translate(38.582208, 24.943193)"><g><path d="M 1.644531 0.683594 C 2.53125 1.109375 5.417969 0.460938 4.390625 -2.597656 C 3.269531 -5.738281 2.625 -6.171875 2.234375 -6.417969 C 1.765625 -6.710938 0.683594 -6.210938 0.808594 -5.609375 C -1.035156 -5.261719 -1.199219 -3.96875 -0.878906 -2.566406 C -0.546875 -1.101562 1.054688 -1.109375 1.5 -1.292969 C 2.179688 -1.566406 2.316406 -1.722656 2.632812 -1.871094 C 2.664062 -1.886719 2.695312 -1.875 2.714844 -1.835938 C 2.894531 -1.453125 2.832031 -1.09375 2.671875 -0.835938 C 2.28125 -0.203125 1.929688 -1.144531 1.425781 -0.828125 C 1.136719 -0.644531 0.699219 0.0195312 1.644531 0.683594 Z M 0.644531 -3.871094 C 1.023438 -4.234375 1.445312 -4.394531 1.554688 -4.199219 L 2.035156 -3.332031 C 2.144531 -3.144531 1.890625 -2.917969 1.273438 -2.726562 C 0.59375 -2.519531 0.226562 -3.472656 0.644531 -3.871094 Z M 0.644531 -3.871094 "/></g></g></g><g fill="#6d6d72" fill-opacity="1"><g transform="translate(43.324499, 22.683222)"><g><path d="M 2.144531 -0.554688 C 2.898438 -0.613281 4.097656 -1 4.550781 -1.726562 C 4.722656 -2.007812 4.652344 -2.351562 4.410156 -2.535156 C 4.042969 -2.835938 3.796875 -2.8125 3.460938 -2.484375 C 2.816406 -1.976562 2.195312 -1.671875 1.648438 -2.453125 C 2.777344 -2.671875 4.589844 -3.488281 4.390625 -4.390625 C 3.738281 -7.308594 -0.457031 -6.007812 -0.523438 -3.230469 C -0.558594 -1.695312 0.710938 -0.449219 2.144531 -0.554688 Z M 1.375 -3.433594 C 1.082031 -4.480469 2.847656 -5.105469 3.085938 -4.257812 C 3.210938 -3.808594 1.375 -3.433594 1.375 -3.433594 Z M 1.375 -3.433594 "/></g></g></g><g fill="#6d6d72" fill-opacity="1"><g transform="translate(48.627412, 21.268719)"><g/></g></g><g fill="#6d6d72" fill-opacity="1"><g transform="translate(51.834871, 20.759189)"><g><path d="M 1.808594 1.050781 C 2.046875 0.976562 2.238281 0.800781 2.300781 0.5 C 2.332031 0.300781 2.308594 0.078125 2.316406 -0.148438 C 2.328125 -0.585938 2.335938 -0.976562 2.347656 -1.332031 C 2.914062 -1.222656 4.796875 -1.191406 4.945312 -2.703125 C 5.109375 -4.394531 4.132812 -5.484375 2.21875 -4.984375 C 2.011719 -5.308594 1.511719 -5.4375 1.023438 -5.351562 C 0.625 -5.28125 0.390625 -5.164062 0.34375 -4.882812 C 0.289062 -4.566406 0.285156 -3.871094 0.320312 -2.269531 C 0.3125 -1.628906 0.257812 -0.972656 0.253906 -0.332031 C 0.25 0.289062 0.238281 0.753906 0.4375 0.917969 C 0.710938 1.15625 1.417969 1.171875 1.808594 1.050781 Z M 2.382812 -2.613281 C 2.398438 -3.078125 2.402344 -3.441406 2.402344 -3.734375 C 2.855469 -3.828125 3.5625 -3.730469 3.625 -3.308594 C 3.683594 -2.867188 3.488281 -2.492188 2.382812 -2.613281 Z M 2.382812 -2.613281 "/></g></g></g><g fill="#6d6d72" fill-opacity="1"><g transform="translate(56.879434, 20.731426)"><g><path d="M 1.054688 0.238281 C 1.535156 0.390625 2.054688 0.28125 2.261719 -0.105469 C 2.378906 -0.316406 2.457031 -0.632812 2.546875 -1.414062 C 2.65625 -2.390625 2.855469 -2.777344 3.265625 -2.734375 L 3.292969 -2.730469 C 3.390625 -2.71875 3.480469 -2.6875 3.527344 -2.621094 C 3.578125 -2.5625 3.605469 -2.476562 3.613281 -2.398438 L 3.65625 -1.957031 C 3.617188 -1.578125 4.609375 -1.472656 4.765625 -1.789062 C 5.316406 -2.871094 4.511719 -4.25 3.601562 -4.382812 C 3.179688 -4.441406 3.046875 -4.394531 2.730469 -4.214844 C 2.6875 -4.625 1.476562 -4.824219 1.097656 -4.527344 C 0.785156 -4.28125 0.828125 -3.847656 0.753906 -3.085938 C 0.589844 -1.390625 0.464844 -0.660156 0.472656 -0.316406 C 0.488281 -0.0195312 0.695312 0.125 1.054688 0.238281 Z M 1.054688 0.238281 "/></g></g></g><g fill="#6d6d72" fill-opacity="1"><g transform="translate(61.440181, 21.346616)"><g><path d="M 2.101562 0.699219 C 2.765625 1.0625 3.984375 1.390625 4.757812 1.023438 C 5.054688 0.878906 5.183594 0.554688 5.078125 0.269531 C 4.933594 -0.183594 4.714844 -0.292969 4.253906 -0.203125 C 3.4375 -0.128906 2.753906 -0.210938 2.71875 -1.160156 C 3.785156 -0.734375 5.75 -0.433594 6.074219 -1.296875 C 7.113281 -4.101562 2.882812 -5.289062 1.316406 -2.996094 C 0.453125 -1.726562 0.839844 0.0117188 2.101562 0.699219 Z M 3.023438 -2.136719 C 3.34375 -3.171875 5.164062 -2.734375 4.902344 -1.894531 C 4.765625 -1.453125 3.023438 -2.136719 3.023438 -2.136719 Z M 3.023438 -2.136719 "/></g></g></g><g fill="#6d6d72" fill-opacity="1"><g transform="translate(66.654369, 22.975044)"><g><path d="M 2.367188 1.328125 C 3.199219 1.746094 4.089844 0.882812 5.433594 -0.390625 C 6.785156 -1.671875 6.339844 -2.097656 5.6875 -2.425781 C 5.207031 -2.667969 4.523438 -1.644531 3.703125 -0.695312 C 3.566406 -0.539062 3.425781 -0.480469 3.34375 -0.519531 C 3.152344 -0.617188 3.320312 -1.320312 3.40625 -1.828125 C 3.46875 -2.167969 3.628906 -3.023438 3.660156 -3.289062 C 3.726562 -3.867188 2.882812 -3.9375 2.441406 -3.898438 C 2.179688 -3.875 2.097656 -3.636719 1.964844 -3.285156 C 1.480469 -1.96875 1.375 0.832031 2.367188 1.328125 Z M 2.367188 1.328125 "/></g></g></g><g fill="#6d6d72" fill-opacity="1"><g transform="translate(71.133045, 25.306331)"><g><path d="M 0.519531 0.964844 C 0.867188 1.292969 1.34375 1.445312 1.644531 1.257812 C 1.984375 1.0625 2.277344 0.511719 3.871094 -2.085938 C 3.96875 -2.25 4.09375 -2.394531 4.15625 -2.554688 C 4.25 -2.789062 4.1875 -3.019531 4.042969 -3.183594 C 3.808594 -3.457031 3.277344 -3.785156 2.953125 -3.761719 C 2.730469 -3.738281 2.53125 -3.402344 2.238281 -2.957031 C 1.949219 -2.503906 1.699219 -2 1.410156 -1.558594 C 0.644531 -0.441406 0.335938 0.0625 0.222656 0.3125 C 0.128906 0.53125 0.25 0.722656 0.519531 0.964844 Z M 3.433594 -4.746094 C 3.21875 -4.421875 3.320312 -4.015625 3.832031 -3.679688 C 4.332031 -3.351562 4.746094 -3.386719 4.972656 -3.734375 C 5.207031 -4.097656 5.027344 -4.503906 4.570312 -4.804688 C 4.085938 -5.121094 3.660156 -5.09375 3.433594 -4.746094 Z M 3.433594 -4.746094 "/></g></g></g><g fill="#6d6d72" fill-opacity="1"><g transform="translate(73.104722, 26.47033)"><g><path d="M 1.664062 1.464844 C 2.132812 2.054688 3.125 2.832031 3.984375 2.796875 C 4.3125 2.78125 4.554688 2.53125 4.570312 2.230469 C 4.613281 1.753906 4.457031 1.566406 3.996094 1.46875 C 3.214844 1.222656 2.617188 0.878906 2.957031 -0.0117188 C 3.769531 0.800781 5.464844 1.84375 6.097656 1.171875 C 8.148438 -1.007812 4.71875 -3.75 2.378906 -2.246094 C 1.089844 -1.414062 0.769531 0.335938 1.664062 1.464844 Z M 3.613281 -0.789062 C 4.316406 -1.617188 5.824219 -0.507812 5.253906 0.164062 C 4.953125 0.519531 3.613281 -0.789062 3.613281 -0.789062 Z M 3.613281 -0.789062 "/></g></g></g><g fill="#6d6d72" fill-opacity="1"><g transform="translate(77.310605, 29.927707)"><g><path d="M 2.644531 3.785156 C 3.042969 4.304688 3.710938 4.554688 4.28125 4.492188 C 5.179688 4.390625 5.886719 3.800781 6.445312 3.222656 C 6.753906 2.90625 7.160156 2.523438 7.355469 2.078125 C 7.535156 1.636719 7.195312 1.164062 6.8125 0.863281 C 6.171875 0.414062 5.484375 1.519531 5.042969 1.988281 C 4.820312 2.230469 4.402344 2.738281 4.046875 2.789062 C 3.761719 2.808594 3.855469 2.605469 3.964844 2.398438 C 4.199219 1.921875 5.710938 1.007812 4.5625 0.140625 C 4.203125 -0.132812 3.671875 0.320312 3.363281 0.515625 C 3.242188 0.605469 2.496094 1.097656 2.601562 0.671875 C 2.667969 0.394531 3.40625 -0.128906 3.6875 -0.3125 C 4.015625 -0.535156 4.589844 -0.765625 4.765625 -1.152344 C 4.96875 -1.5625 4.605469 -2.011719 4.304688 -2.261719 C 3.8125 -2.664062 3.46875 -2.3125 3 -2.007812 C 2.109375 -1.40625 1.054688 -0.703125 0.699219 0.363281 C 0.34375 1.472656 1.476562 2.339844 2.515625 2.226562 C 2.351562 2.710938 2.277344 3.292969 2.644531 3.785156 Z M 2.644531 3.785156 "/></g></g></g></svg>