<svg width="24" height="24" viewBox="0 0 24 24" fill="none" xmlns="http://www.w3.org/2000/svg">
<path d="M20.87 10.4801C20.5732 8.74792 19.7757 7.14054 18.576 5.85632C17.3762 4.57209 15.8268 3.66722 14.1188 3.25336C12.4107 2.8395 10.6189 2.93476 8.96443 3.52739C7.30993 4.12001 5.86513 5.18408 4.80833 6.58827C3.75153 7.99246 3.12897 9.67534 3.01746 11.4292C2.90596 13.1831 3.3104 14.9313 4.18087 16.458C5.05135 17.9847 6.34976 19.2232 7.9159 20.0206C9.48203 20.8179 11.2474 21.1393 12.994 20.9451M9.00002 10.0001H9.01003M15 10.0001H15.01" stroke="black" stroke-width="2" stroke-linecap="round" stroke-linejoin="round"/>
<path d="M9.5 15C10.158 15.64 11.06 16 12 16C12.357 16 12.709 15.948 13.043 15.849M21 15H18.5C18.1022 15 17.7206 15.158 17.4393 15.4393C17.158 15.7206 17 16.1022 17 16.5C17 16.8978 17.158 17.2794 17.4393 17.5607C17.7206 17.842 18.1022 18 18.5 18H19.5C19.8978 18 20.2794 18.158 20.5607 18.4393C20.842 18.7206 21 19.1022 21 19.5C21 19.8978 20.842 20.2794 20.5607 20.5607C20.2794 20.842 19.8978 21 19.5 21H17M19 21V22M19 14V15" stroke="black" stroke-width="2" stroke-linecap="round" stroke-linejoin="round"/>
</svg>
