<svg width="45" height="45" viewBox="0 0 45 45" fill="none" xmlns="http://www.w3.org/2000/svg">
<path d="M35.625 31.875V35.625H13.125V31.875C13.125 31.875 13.125 24.375 24.375 24.375C35.625 24.375 35.625 31.875 35.625 31.875ZM30 15C30 13.8875 29.6701 12.7999 29.052 11.8749C28.4339 10.9499 27.5554 10.2289 26.5276 9.80318C25.4998 9.37744 24.3688 9.26604 23.2776 9.48309C22.1865 9.70013 21.1842 10.2359 20.3975 11.0225C19.6109 11.8092 19.0751 12.8115 18.8581 13.9026C18.641 14.9938 18.7524 16.1248 19.1782 17.1526C19.6039 18.1804 20.3249 19.0589 21.2499 19.677C22.1749 20.2951 23.2625 20.625 24.375 20.625C25.8668 20.625 27.2976 20.0324 28.3525 18.9775C29.4074 17.9226 30 16.4918 30 15ZM36 24.4875C37.0249 25.4331 37.8512 26.5733 38.4307 27.8417C39.0102 29.1101 39.3312 30.4812 39.375 31.875V35.625H45V31.875C45 31.875 45 25.4063 36 24.4875ZM33.75 9.375C33.1835 9.37534 32.6205 9.4639 32.0813 9.6375C33.1782 11.2106 33.7664 13.0822 33.7664 15C33.7664 16.9178 33.1782 18.7894 32.0813 20.3625C32.6205 20.5361 33.1835 20.6247 33.75 20.625C35.2418 20.625 36.6726 20.0324 37.7275 18.9775C38.7824 17.9226 39.375 16.4918 39.375 15C39.375 13.5082 38.7824 12.0774 37.7275 11.0225C36.6726 9.96763 35.2418 9.375 33.75 9.375ZM15 18.75H9.375V13.125H5.625V18.75H0V22.5H5.625V28.125H9.375V22.5H15V18.75Z" fill="white"/>
</svg>
