<svg width="32" height="29" viewBox="0 0 32 29" fill="none" xmlns="http://www.w3.org/2000/svg">
<g clip-path="url(#clip0_12_1294)">
<path d="M2.48933 8.41773C2.39036 8.41703 2.29543 8.37955 2.22621 8.3134C2.05339 8.14865 1.91795 7.95803 1.82376 7.74699C1.7239 7.52364 1.67411 7.28869 1.67411 7.05374C1.67411 6.82228 1.7224 6.59082 1.81943 6.37027C2.01452 5.92568 2.38274 5.57898 2.8568 5.39368C3.33071 5.20865 3.85335 5.20711 4.32831 5.38962C4.80356 5.57227 5.17417 5.91701 5.37211 6.36034C5.67529 7.03947 5.50965 7.81286 4.95067 8.33144C4.88026 8.39661 4.78503 8.43311 4.68591 8.43241L2.48933 8.41773ZM5.72298 9.37418C5.72268 9.28202 5.7611 9.19224 5.83092 9.12636C6.72851 8.27899 6.99118 7.02045 6.49977 5.91967C6.17611 5.19439 5.56989 4.6305 4.79295 4.33191C4.01571 4.03332 3.16088 4.03556 2.38573 4.33848C1.61058 4.64155 1.00795 5.20879 0.688769 5.93575C0.36959 6.66299 0.372131 7.46281 0.696094 8.18781C0.856058 8.54625 1.08554 8.86638 1.37841 9.13881C1.38648 9.14622 1.39395 9.15406 1.40113 9.16203L7.03722 14.3204L9.00372 12.5206L5.8351 9.62061C5.76424 9.55571 5.72373 9.46705 5.72298 9.37418Z" fill="black"/>
<path d="M10.0686 17.0946L14.0985 20.7828V17.1833L12.0351 15.2947L10.0686 17.0946Z" fill="black"/>
<path d="M16.1027 14.1549C16.1474 14.1549 16.1895 14.1635 16.2293 14.1769V11.4561L14.8432 12.7248V14.1817C14.8871 14.1646 14.9351 14.1549 14.9858 14.1549H16.1027Z" fill="black"/>
<mask id="mask0_12_1294" style="mask-type:luminance" maskUnits="userSpaceOnUse" x="14" y="1" width="18" height="14">
<path d="M31.3674 1.25049V14.5357H14.834V1.25049H31.3674Z" fill="white"/>
</mask>
<g mask="url(#mask0_12_1294)">
<path d="M16.2294 6.16231V4.5677C16.2294 4.37527 16.3962 4.21933 16.6018 4.21933C17.2301 4.21933 17.7414 3.74103 17.7414 3.15295C17.7414 2.96065 17.908 2.80471 18.1137 2.80471H27.5034C27.7091 2.80471 27.8756 2.96065 27.8756 3.15295C27.8756 3.74103 28.3869 4.21933 29.0154 4.21933C29.17 4.21933 29.3202 4.19066 29.4618 4.1343C29.5768 4.08843 29.7088 4.09975 29.8131 4.16409C29.9173 4.22856 29.98 4.33779 29.98 4.4547V14.5029H30.2495C30.2495 14.3106 30.4161 14.1547 30.6218 14.1547H31.3663V1.96587C31.3663 1.57176 31.0236 1.25122 30.6025 1.25122H15.607C15.1858 1.25122 14.8433 1.57176 14.8433 1.96587V7.17611L15.2285 6.82354C15.5304 6.54705 15.8693 6.32734 16.2294 6.16231Z" fill="black"/>
</g>
<mask id="mask1_12_1294" style="mask-type:luminance" maskUnits="userSpaceOnUse" x="14" y="14" width="18" height="14">
<path d="M31.3674 14.5V27.7533H14.834V14.5H31.3674Z" fill="white"/>
</mask>
<g mask="url(#mask1_12_1294)">
<path d="M29.9799 24.5514C29.9799 24.6684 29.9173 24.7774 29.8131 24.842C29.7087 24.9063 29.5767 24.9175 29.4618 24.8718C29.3202 24.8154 29.1701 24.7867 29.0153 24.7867C28.3869 24.7867 27.8756 25.2652 27.8756 25.853C27.8756 26.0453 27.709 26.2014 27.5033 26.2014H18.1136C17.9079 26.2014 17.7414 26.0453 17.7414 25.853C17.7414 25.2652 17.2301 24.7867 16.6017 24.7867C16.3962 24.7867 16.2293 24.6309 16.2293 24.4386V14.8293C16.1896 14.843 16.1474 14.8515 16.1027 14.8515H14.9858C14.9351 14.8515 14.8871 14.8419 14.8432 14.8248V27.0402C14.8432 27.4342 15.1857 27.755 15.607 27.755H30.6024C31.0236 27.755 31.3662 27.4342 31.3662 27.0402V14.8515H30.6217C30.416 14.8515 30.2495 14.6955 30.2495 14.5032H29.9799V24.5514Z" fill="black"/>
</g>
<path d="M18.3363 14.8515H17.2196C17.125 14.8515 17.0397 14.8176 16.974 14.7633V24.1248C17.7147 24.2644 18.2999 24.8115 18.4491 25.5049H27.1681C27.3414 24.6988 28.1038 24.0901 29.0153 24.0901C29.0893 24.0901 29.163 24.0943 29.2355 24.1022V14.8515H28.388C28.1825 14.8515 28.0158 14.6956 28.0158 14.5032H27.6434C27.6434 14.6956 27.4768 14.8515 27.2711 14.8515H27.1728C26.9839 16.7968 25.2321 18.3261 23.1048 18.3261C20.8518 18.3261 19.019 16.6112 19.019 14.5032H18.7086C18.7086 14.6956 18.5419 14.8515 18.3363 14.8515Z" fill="black"/>
<path d="M17.2196 14.1549H18.3363C18.5419 14.1549 18.7086 14.3107 18.7086 14.503H19.019C19.019 12.3952 20.8518 10.6803 23.1048 10.6803C25.2321 10.6803 26.9839 12.2096 27.1728 14.1549H27.2711C27.4768 14.1549 27.6434 14.3107 27.6434 14.503H28.0158C28.0158 14.3107 28.1825 14.1549 28.388 14.1549H29.2355V4.90419C29.1627 4.91217 29.0893 4.91608 29.0153 4.91608C28.1038 4.91608 27.3414 4.3073 27.1681 3.50146H18.4491C18.2999 4.19472 17.7147 4.7421 16.974 4.88168V5.90666C18.2679 5.59899 19.6981 5.92484 20.6969 6.88004C20.8406 7.01766 20.8382 7.23821 20.6911 7.37275L16.974 10.7745V14.2432C17.0397 14.1889 17.125 14.1549 17.2196 14.1549Z" fill="black"/>
<path d="M25.7821 14.5032H25.4097C25.4097 14.6955 25.243 14.8515 25.0373 14.8515H23.9205C23.715 14.8515 23.5483 14.6955 23.5483 14.5032H23.1759C23.1759 14.6955 23.0094 14.8515 22.8038 14.8515H21.6869C21.4813 14.8515 21.3145 14.6955 21.3145 14.5032H20.9424C20.9424 14.6955 20.7756 14.8515 20.57 14.8515H19.7848C19.9707 16.4119 21.3882 17.6293 23.1047 17.6293C24.8211 17.6293 26.2387 16.4119 26.4245 14.8515H26.1542C25.9486 14.8515 25.7821 14.6955 25.7821 14.5032Z" fill="black"/>
<path d="M20.9424 14.5031H21.3145C21.3145 14.3108 21.4813 14.1549 21.6869 14.1549H22.8038C23.0094 14.1549 23.1759 14.3108 23.1759 14.5031H23.5483C23.5483 14.3108 23.715 14.1549 23.9205 14.1549H25.0373C25.243 14.1549 25.4097 14.3108 25.4097 14.5031H25.7821C25.7821 14.3108 25.9486 14.1549 26.1542 14.1549H26.4245C26.2388 12.5944 24.8211 11.377 23.1047 11.377C21.3882 11.377 19.9707 12.5944 19.7848 14.1549H20.57C20.7756 14.1549 20.9424 14.3108 20.9424 14.5031Z" fill="black"/>
<path d="M4.95069 21.2836C5.50982 21.8021 5.67516 22.5758 5.37213 23.2547C5.17419 23.698 4.80358 24.0427 4.32833 24.2254C3.85337 24.4077 3.33073 24.4063 2.85682 24.2215C2.38276 24.036 2.01454 23.6892 1.81945 23.2446C1.72257 23.0243 1.67413 22.7926 1.67413 22.5611C1.67413 22.3262 1.72392 22.0912 1.82378 21.868C1.91797 21.6568 2.05341 21.4663 2.22623 21.3016C2.29545 21.2353 2.39038 21.1981 2.48935 21.1974L4.68593 21.1827C4.78505 21.1819 4.88028 21.2182 4.95069 21.2836ZM19.8884 7.13264C18.6749 6.21883 16.8896 6.27757 15.7488 7.32158L1.401 20.453C1.39397 20.4611 1.3862 20.4688 1.37843 20.4763C1.08556 20.7488 0.856078 21.0686 0.696114 21.4272C0.372151 22.1525 0.369759 22.9522 0.688789 23.6791C1.00797 24.4062 1.6106 24.9733 2.38575 25.2761C3.1609 25.5793 4.01573 25.5817 4.79297 25.2831C5.56991 24.9844 6.17613 24.4208 6.49979 23.6955C6.99105 22.595 6.72868 21.3363 5.83079 20.4886C5.76112 20.4228 5.72599 20.3313 5.723 20.2408C5.72375 20.1481 5.76426 20.0593 5.83512 19.9944L19.8884 7.13264Z" fill="black"/>
</g>
<defs>
<clipPath id="clip0_12_1294">
<rect width="29" height="31" fill="white" transform="matrix(0 1 -1 0 31.3674 0)"/>
</clipPath>
</defs>
</svg>
