<svg width="94" height="95" viewBox="0 0 94 95" fill="none" xmlns="http://www.w3.org/2000/svg">
<path d="M69.1176 95C75.7169 95 82.0458 92.3506 86.7121 87.6346C91.3785 82.9186 94 76.5224 94 69.8529C94 63.1835 91.3785 56.7873 86.7121 52.0713C82.0458 47.3553 75.7169 44.7059 69.1176 44.7059C62.5184 44.7059 56.1895 47.3553 51.5232 52.0713C46.8568 56.7873 44.2353 63.1835 44.2353 69.8529C44.2353 76.5224 46.8568 82.9186 51.5232 87.6346C56.1895 92.3506 62.5184 95 69.1176 95ZM72.568 83.8515C72.5866 84.3215 72.5111 84.7905 72.3459 85.2303C72.1808 85.6702 71.9294 86.0717 71.6069 86.4109C71.2845 86.7502 70.8975 87.0201 70.4693 87.2044C70.041 87.3888 69.5804 87.4838 69.1149 87.4838C68.6494 87.4838 68.1887 87.3888 67.7605 87.2044C67.3323 87.0201 66.9453 86.7502 66.6228 86.4109C66.3003 86.0717 66.049 85.6702 65.8838 85.2303C65.7187 84.7905 65.6432 84.3215 65.6618 83.8515C65.6618 82.9252 66.0259 82.0368 66.674 81.3818C67.3221 80.7268 68.2011 80.3588 69.1176 80.3588C70.0342 80.3588 70.9132 80.7268 71.5613 81.3818C72.2094 82.0368 72.5735 82.9252 72.5735 83.8515H72.568ZM79.3692 64.0021C79.3692 67.2768 78.1804 69.0762 75.3438 71.3729L73.8121 72.5688C72.4519 73.6529 71.9929 74.2453 71.8989 75.0724L71.8381 75.9441C71.715 76.6312 71.3419 77.2468 70.7921 77.6697C70.2424 78.0925 69.5559 78.2921 68.8678 78.229C68.1798 78.1659 67.54 77.8448 67.0746 77.3288C66.6091 76.8128 66.3517 76.1394 66.3529 75.4412C66.3529 72.2559 67.5141 70.5012 70.312 68.2435L71.8492 67.0421C73.4417 65.7568 73.8398 65.1309 73.8398 64.0021C73.8398 60.8838 71.7275 58.6932 69.1176 58.6932C66.3861 58.6932 64.3679 60.7385 64.3955 63.9741C64.3992 64.341 64.3312 64.7051 64.1957 65.0455C64.0601 65.3859 63.8595 65.696 63.6053 65.958C63.3512 66.2201 63.0484 66.429 62.7144 66.5728C62.3803 66.7166 62.0215 66.7925 61.6585 66.7962C61.2954 66.7999 60.9352 66.7312 60.5984 66.5942C60.2615 66.4572 59.9547 66.2544 59.6954 65.9976C59.4361 65.7407 59.2294 65.4347 59.0872 65.0971C58.9449 64.7595 58.8697 64.3969 58.8661 64.03C58.8108 57.6762 63.3228 53.105 69.1176 53.105C74.8185 53.105 79.3692 57.8326 79.3692 64.0021ZM38.7059 0C32.8399 0 27.2142 2.35504 23.0663 6.54703C18.9185 10.739 16.5882 16.4246 16.5882 22.3529C16.5882 28.2813 18.9185 33.9669 23.0663 38.1589C27.2142 42.3508 32.8399 44.7059 38.7059 44.7059C44.5718 44.7059 50.1976 42.3508 54.3454 38.1589C58.4933 33.9669 60.8235 28.2813 60.8235 22.3529C60.8235 16.4246 58.4933 10.739 54.3454 6.54703C50.1976 2.35504 44.5718 0 38.7059 0ZM11.1086 50.2941C9.65234 50.2882 8.20928 50.5729 6.86214 51.1319C5.515 51.6909 4.29029 52.5131 3.25826 53.5514C2.22622 54.5898 1.40715 55.8238 0.848026 57.1828C0.2889 58.5417 0.000716125 59.9988 0 61.4706C0 70.9203 4.606 78.0453 11.8053 82.6891C18.894 87.2547 28.4488 89.4118 38.7059 89.4118C40.9729 89.4118 43.2179 89.3056 45.3965 89.0932C41.0555 83.6414 38.6941 76.8508 38.7059 69.8529C38.7059 62.4206 41.3158 55.6029 45.6564 50.2941H11.1141H11.1086Z" fill="#7C5E42"/>
</svg>
